<?xml version="1.0" encoding="utf-8"?>
<!-- Generator: Adobe Illustrator 16.0.0, SVG Export Plug-In . SVG Version: 6.00 Build 0)  -->
<!DOCTYPE svg PUBLIC "-//W3C//DTD SVG 1.1//EN" "http://www.w3.org/Graphics/SVG/1.1/DTD/svg11.dtd">
<svg version="1.1" id="Layer_1" xmlns="http://www.w3.org/2000/svg" xmlns:xlink="http://www.w3.org/1999/xlink" x="0px" y="0px"
	 width="235px" height="55px" viewBox="0 0 235 55" enable-background="new 0 0 235 55" xml:space="preserve">
<g>
	<defs>
		<rect id="SVGID_1_" x="337.667" y="-118.333" width="375" height="375.75"/>
	</defs>
	<clipPath id="SVGID_2_">
		<use xlink:href="#SVGID_1_"  overflow="visible"/>
	</clipPath>
	<rect x="337.667" y="-118.333" clip-path="url(#SVGID_2_)" fill="#FFFFFF" width="375" height="375.75"/>
</g>
<g>
	<defs>
		<rect id="SVGID_3_" x="-445.667" y="-60.667" width="375" height="375"/>
	</defs>
	<clipPath id="SVGID_4_">
		<use xlink:href="#SVGID_3_"  overflow="visible"/>
	</clipPath>
	<rect x="-445.667" y="-60.667" clip-path="url(#SVGID_4_)" fill="#FFFFFF" width="375" height="375"/>
</g>
<text transform="matrix(1 0 0 1 150.3164 -34.873)" font-family="'PlayfairDisplay-Regular'" font-size="19.861"> </text>
<text transform="matrix(1 0 0 1 144.873 -57.0034)" fill="#FFFFFF" font-family="'ArchivoBlack-Regular'" font-size="16.8416">K</text>
<text transform="matrix(1 0 0 1 161.2979 -57.0034)" fill="#FFFFFF" font-family="'ArchivoBlack-Regular'" font-size="16.8416">N</text>
<text transform="matrix(1 0 0 1 177.7236 -57.0034)" fill="#FFFFFF" font-family="'ArchivoBlack-Regular'" font-size="16.8416">O</text>
<text transform="matrix(1 0 0 1 194.1484 -57.0034)" fill="#FFFFFF" font-family="'ArchivoBlack-Regular'" font-size="16.8416">W</text>
<text transform="matrix(1 0 0 1 213.3857 -57.0034)" fill="#FFFFFF" font-family="'ArchivoBlack-Regular'" font-size="16.8416"> </text>
<text transform="matrix(1 0 0 1 221.3965 -57.0034)" fill="#FFFFFF" font-family="'ArchivoBlack-Regular'" font-size="16.8416">Y</text>
<text transform="matrix(1 0 0 1 236.8975 -57.0034)" fill="#FFFFFF" font-family="'ArchivoBlack-Regular'" font-size="16.8416">O</text>
<text transform="matrix(1 0 0 1 253.3223 -57.0034)" fill="#FFFFFF" font-family="'ArchivoBlack-Regular'" font-size="16.8416">U</text>
<text transform="matrix(1 0 0 1 269.748 -57.0034)" fill="#FFFFFF" font-family="'ArchivoBlack-Regular'" font-size="16.8416">R</text>
<text transform="matrix(1 0 0 1 285.248 -57.0034)" fill="#FFFFFF" font-family="'ArchivoBlack-Regular'" font-size="16.8416"> </text>
<text transform="matrix(1 0 0 1 293.2607 -57.0034)" fill="#FFFFFF" font-family="'ArchivoBlack-Regular'" font-size="16.8416">H</text>
<text transform="matrix(1 0 0 1 309.6855 -57.0034)" fill="#FFFFFF" font-family="'ArchivoBlack-Regular'" font-size="16.8416">I</text>
<text transform="matrix(1 0 0 1 318.6406 -57.0034)" fill="#FFFFFF" font-family="'ArchivoBlack-Regular'" font-size="16.8416">R</text>
<text transform="matrix(1 0 0 1 334.1406 -57.0034)" fill="#FFFFFF" font-family="'ArchivoBlack-Regular'" font-size="16.8416">E</text>
<text transform="matrix(1 0 0 1 148.7695 -94.1338)" font-family="'PlayfairDisplay-Regular'" font-size="19.861"> </text>
<rect x="3.373" y="7.25" fill="#FFFFFF" width="40.5" height="40.5"/>
<rect x="4.636" y="8.513" fill="#8C52FF" width="115.364" height="37.946"/>
<text transform="matrix(1 0 0 1 -9.2798 -43.332)" fill="#FFFFFF" font-family="'Arimo-Regular'" font-size="24">K</text>
<rect x="-87" y="-161" fill-rule="evenodd" clip-rule="evenodd" fill="none" width="375" height="375"/>
<text transform="matrix(1 0 0 1 9.333 33.333)" fill="#FFFFFF" font-family="'RobotoCondensed-Regular'" font-size="21">KNOW YOUR</text>
<text transform="matrix(1 0 0 1 124 35.334)" fill="#8C52FF" font-family="'RobotoCondensed-Regular'" font-size="21">HIRE</text>
</svg>
